<svg xmlns="http://www.w3.org/2000/svg" viewBox="0 0 315.67 480.06"><defs><style>.cls-1{fill:#fffffd;}.cls-2,.cls-3{fill:#fff;}.cls-3{stroke:#fff;stroke-linecap:round;stroke-miterlimit:10;}.cls-4{fill:none;}.cls-5{fill:#6eb52c;}</style></defs><title>background</title><g id="Слой_2" data-name="Слой 2"><g id="Слой_1-2" data-name="Слой 1"><rect class="cls-1" x="144.33" width="14.74" height="66.93" rx="7.37"/><rect class="cls-1" x="229.65" y="36.51" width="14.74" height="66.93" rx="7.37" transform="translate(117.86 -146.53) rotate(44.73)"/><rect class="cls-1" x="263.11" y="121.35" width="14.74" height="66.93" rx="7.37" transform="translate(419.54 -118.87) rotate(88.79)"/><rect class="cls-1" x="26.09" y="121.35" width="14.74" height="66.93" rx="7.37" transform="matrix(0.02, 1, -1, 0.02, 187.53, 118.09)"/><rect class="cls-1" x="59.89" y="36.51" width="14.74" height="66.93" rx="7.37" transform="translate(164 77.89) rotate(138.55)"/><path class="cls-1" d="M290.18,438.12l-.5,24.43a14.07,14.07,0,0,1-.48,3.65,11.66,11.66,0,0,1-.38,1.15,23.75,23.75,0,0,1-3.65,6.35c-3.71,4.33-10,5.78-10.77,6-3.82.15-9.36.32-16.1.38-3.12,0-5.84,0-11.28,0-5.63,0-10.9,0-16.88-.13-7.33-.11-7-.25-15.19-.37-12.4-.19-20.13-.3-30-.26-2.49,0-4.55,0-6.5,0-6.71,0-7.26-.13-10.87-.13-9.35,0-9.74.69-14.32.13-4.24-.51-6.36-.77-8.92-2.15-7.59-4.09-9.51-12.72-9.69-13.58a20.47,20.47,0,0,1-.41-4.11l.47-5.17a33.69,33.69,0,0,0,2.21-8.83,29.69,29.69,0,0,0,.19-3.35,28.37,28.37,0,0,0-1.26-8.4h5.38l.91,2.82.25.8.31,1,.07.39.54,3.18h0l.39,2.29V458.7a12.16,12.16,0,0,0,12.16,12.16H269.41a12.16,12.16,0,0,0,12.16-12.16V441.1c0-.35,0-.7,0-1v-6.37h8.35c.07.72.12,1.46.17,2.21S290.15,437.39,290.18,438.12Z"/><path class="cls-1" d="M117.74,129.63l8.66.14c.06-.51.13-1,.23-1.51,2-10.88,12.63-19.25,25.23-19.25,12.84,0,23.6,8.68,25.34,19.81a16.38,16.38,0,0,1,.22,1.85l8.3.16c0-.23,0-.46,0-.69,0-.65,0-1.3-.08-1.94-1.16-15.45-16-27.82-34-27.81-16.93,0-31.17,11.08-33.63,25.38h0l0,.13a24,24,0,0,0-.29,2.55v1.17Z"/><path class="cls-1" d="M118.06,125.78a4.18,4.18,0,0,1,.88-1.34l.15-.15a4.43,4.43,0,0,1,2.7-1h.8a4.05,4.05,0,0,1,4,4V305.55a4.05,4.05,0,0,1-4,4h-.8a4.05,4.05,0,0,1-4-4c0-61.08,0-159.34,0-175.92v-1.1Z"/><path class="cls-1" d="M185.86,130.67c0,.78,0,66.39,0,106.06a30.59,30.59,0,0,0-8.79,4.59V129.66a4.39,4.39,0,0,1,7.5-3.1,3.77,3.77,0,0,1,.93,1.38l0,0a3.72,3.72,0,0,1,.2,1c0,.21,0,.54.07,1.12C185.84,130.07,185.85,130.41,185.86,130.67Z"/><path class="cls-1" d="M225.91,258.42c0,1,0,2-.14,3a37.31,37.31,0,0,0-6.15,5.87,40.94,40.94,0,0,0-1.11-9.58c-2.49-10.43-9.06-18.63-18.38-21.32a24,24,0,0,0-14.22.37,30.59,30.59,0,0,0-8.79,4.59v-8.7A31.12,31.12,0,0,1,225,250.9c.08.31.15.63.21.95A31.39,31.39,0,0,1,225.91,258.42Z"/><path class="cls-1" d="M272.77,264.69c-.18-.34-.37-.68-.56-1a31.81,31.81,0,0,0-10.35-10.89l-1.64-1.06a32.25,32.25,0,0,0-34.72-.07,2.9,2.9,0,0,0-.29.19,31.1,31.1,0,0,0-6.7,5.83,40.94,40.94,0,0,1,1.11,9.58,37.31,37.31,0,0,1,6.15-5.87c7-5.34,15.42-7.51,23.36-5.22a25.08,25.08,0,0,1,14.71,12,33.54,33.54,0,0,1,3.37,8.12,29.05,29.05,0,0,1,8.32-4.47A32.39,32.39,0,0,0,272.77,264.69Z"/><path class="cls-1" d="M315.56,293.73c0,.81,0,1.64-.09,2.46a32.32,32.32,0,0,1-4.05,13.36l-4.62-2,0-6.45c0-.69,0-1.37-.06-2.06-.66-13.6-7.37-24.81-18-27.87a21.72,21.72,0,0,0-13,.42,29.42,29.42,0,0,0-8.46,4.55,34.13,34.13,0,0,0-3.43-8.26,31.84,31.84,0,0,1,7.8-4.31,6,6,0,0,1,.71-.26,32.2,32.2,0,0,1,43.21,30.42Z"/><path class="cls-1" d="M315.67,294.21V389a4.55,4.55,0,0,1-4.36,4.7h-.71c-.2,0-4,0-4.38-1.4-.15-.49.22-.95.33-2.4a9.42,9.42,0,0,0,0-1.61q-.15-41.74-.31-83.49l4.85,2.27a37.89,37.89,0,0,0,4.18-14.84A5.08,5.08,0,0,1,315.67,294.21Z"/><path class="cls-2" d="M307.67,303.59h0c-.56,1.82-1,2.7-1.18,2.66s-.31-1.37-.12-4v-7.48a1.31,1.31,0,0,1,1.3-1.3h0a1.3,1.3,0,0,1,1.3,1.3v7.48A1.3,1.3,0,0,1,307.67,303.59Z"/><rect class="cls-2" x="307.96" y="300.3" width="0.57" height="0.32" rx="0.16"/><path class="cls-2" d="M304.42,403.11h0c-2.51-2-2.94-3.6-2.9-4.65s.46-.76,2.43-4.41c0,0,.83-1.54,2.47-4.8l.31-.62.47-.94a4.54,4.54,0,0,1,2.56-2.21,4.45,4.45,0,0,1,3.37.24h0a5,5,0,0,1,2.21,2.56,5.71,5.71,0,0,1-.39,4.13,52.11,52.11,0,0,1-5.26,9.8,2.52,2.52,0,0,0-.38.49,1.59,1.59,0,0,1-.38.56,1.08,1.08,0,0,1-.25.14,1.14,1.14,0,0,1-.36.08,1.1,1.1,0,0,1-.53-.13A11.89,11.89,0,0,0,304.42,403.11Z"/><rect class="cls-3" x="297.79" y="394.74" width="8.14" height="20.85" rx="4.05" transform="translate(303.58 -100.08) rotate(36.88)"/><path class="cls-1" d="M287.18,421.92l.77.63A4.32,4.32,0,0,0,294,422c2-2.21,4.09-4.61,6.14-7.21.82-1,1.6-2.06,2.35-3.08a4.58,4.58,0,0,0,.65-1.1,4.26,4.26,0,0,0,.31-2.06,4.33,4.33,0,0,0-.85-2.2,4.68,4.68,0,0,0-.69-.72l-.77-.63c.31-2.23-.19-2.74-.46-2.89-1.31-.74-4.59,2.91-5.13,3.52l-9,10.24A4.33,4.33,0,0,0,287.18,421.92Z"/><ellipse class="cls-2" cx="288.47" cy="421.19" rx="6.36" ry="4.35" transform="translate(-187.02 607) rotate(-76.94)"/><path class="cls-2" d="M293.49,422.23a2.55,2.55,0,0,1-.23.43l-2,3.1h0l0,0a2.55,2.55,0,0,1-.32.4,2.87,2.87,0,0,1-1,.71,2.93,2.93,0,0,1-1,.27,3.07,3.07,0,0,1-2.06-.49l-1.58-1a3.05,3.05,0,0,1-.82-.78,3.15,3.15,0,0,1-.08-3.55l2.07-3.14a3.14,3.14,0,0,1,4.33-.9l1.58,1A3.14,3.14,0,0,1,293.49,422.23Z"/><path class="cls-1" d="M290.19,428.5c0,1.08,0,14.61,0,33.16a12.32,12.32,0,0,1-.16,1.74c-.28,1.75-1.13,4.61-2.12,4.63-.32,0-.82-.28-1.47-1.89h-1a3.75,3.75,0,0,1-3.79-3.69V428.5A3.7,3.7,0,0,1,284.3,425a3.53,3.53,0,0,1,1.08-.16h1a3.82,3.82,0,0,1,2.8,1.21,3.49,3.49,0,0,1,.67,1A3.61,3.61,0,0,1,290.19,428.5Z"/><path class="cls-4" d="M144,434.28c0,9.71,8.57,17.56,19.15,17.56"/><path class="cls-2" d="M143.87,446l-.19,3.84,0-.07L139,434l-3.09-10.53a47.12,47.12,0,0,1,4.69,8.72l.56,1.81,1.47,4.71Z"/><path class="cls-2" d="M141.72,446.36c-1.17.61-2.86.25-4.84-.92a30.91,30.91,0,0,0,.19-3.35,28.37,28.37,0,0,0-1.26-8.4,27.7,27.7,0,0,0-6.74-11.32,26.6,26.6,0,0,0-12-7.08c-.36-2.63,0-4.55,1.26-5.32l.18-.12h0a8.28,8.28,0,0,1,1.09-.38c.61-.15,1.16.45,2.66,1.08.16.06.42.17.77.27s.61.15.75.18c1.06.25,5.47,2.66,12.59,13.83a58.49,58.49,0,0,1,4.68,8.86c.41,1,.76,1.92,1.06,2.82l.25.8c.15.46.27.91.38,1.35a19.06,19.06,0,0,1,.54,3.18h0C143.43,444.11,142.94,445.72,141.72,446.36Z"/><path class="cls-1" d="M138,429.92l-.19.21a3.1,3.1,0,0,1-.71.6,3.48,3.48,0,0,1-4.22-.31l-1.1-2.1a32.84,32.84,0,0,0-10.11-10.89l-.29-.25a.08.08,0,0,1-.07,0s0-.08.08-.1a19,19,0,0,0-2.32-1.11,3.37,3.37,0,0,1,.83-1.73l.19-.21a3.5,3.5,0,0,1,4.93-.29l.28.25,9.94,8.84,2.47,2.2A3.49,3.49,0,0,1,138,429.92Z"/><ellipse class="cls-2" cx="286.22" cy="424.91" rx="8.49" ry="4.12" transform="translate(-198.65 590.35) rotate(-74.88)"/><path class="cls-2" d="M291.29,425.43h0c0,.14,0,.27-.07.41h0l-1,3.11c-.06.1-.1.2-.16.28h0c-.31.5-.62.77-.86.7-.43-.12-.51-1.25-.24-2.69a8.43,8.43,0,0,1,.21-.91c0-.12.07-.24.1-.35.51-1.66,1.25-2.87,1.73-2.74S291.45,424.25,291.29,425.43Z"/><path class="cls-1" d="M293.86,422.18c-.54.62-.94,1.15-1.22,1.53s-.44.62-.58.81c-.54.79-.83,1.24-.84,1.24s.22-.41,1.24-2.09a12.7,12.7,0,0,0-2,4.93c-.06.35-.1.69-.13,1-.05,1.39-.11,2.77-.16,4.15l-.17-4.49h0a7.53,7.53,0,0,1,.15-.85v-.06l.69-2a8.55,8.55,0,0,1,.42-.86h0a9.78,9.78,0,0,1,1-1.68A9.2,9.2,0,0,1,293.86,422.18Z"/><path class="cls-1" d="M85.57,278.43,86,279l-6.47,5.2a22.12,22.12,0,0,0-16-6.65A26.89,26.89,0,0,0,46,283.92c-12.57,10.9-8.65,29.17-7.68,30.07a4.71,4.71,0,0,1,.65.71,5.29,5.29,0,0,1,.78,1.47L33,321.65c-10.06-12.6-6.76-32.43,7.37-44.25C54.7,265.44,75.09,265.9,85.57,278.43Z"/><path class="cls-1" d="M115,412.8h0a4.41,4.41,0,0,1-3.3,1.55c-1.11-.07-1.85-.71-3-1.68a14,14,0,0,1-3-3.7c-4-5.91-69.77-83.8-74-88.86a4.5,4.5,0,0,1-1-3.24,4.4,4.4,0,0,1,.86-2.26,4.24,4.24,0,0,1,.71-.74c1.42-1.37-1-6-.6-6.31,1.91-1.57,82.51,97.63,82.74,97.93,0,0,.07.11.18.25a6.25,6.25,0,0,1,.57.89,7.32,7.32,0,0,1,.62,1.62A7.23,7.23,0,0,1,115,412.8Z"/><path class="cls-1" d="M109.67,307.93h0a4.91,4.91,0,0,1-6.93,0L78.93,283.65a4.66,4.66,0,0,1-1.76-3.33,4.42,4.42,0,0,1,1.43-3.46,4.64,4.64,0,0,1,5.62.11l25.45,24a4.7,4.7,0,0,1,1.38,2.78A5.82,5.82,0,0,1,109.67,307.93Z"/><path class="cls-4" d="M116.9,296.56c-.79.38-1.57.75-2.36,1.11"/><path class="cls-2" d="M126.63,306.71v1.57c0,5.57-4.13,10.14-9.16,10.14s-9.16-4.57-9.16-10.14v-1.57a10,10,0,0,1,.22-2.14l5.61,4.26-.09-3.91c.16.24.21.34.19.35s-.34-.22-.32-.25a40,40,0,0,1,3.83,2.25q0-5.36,0-10.71a10,10,0,0,1,6.14,3A10.12,10.12,0,0,1,126.63,306.71Z"/><line class="cls-4" x1="117.12" y1="306.44" x2="117.12" y2="308.03"/><line class="cls-4" x1="117.25" y1="299.98" x2="117.25" y2="307.46"/><path class="cls-4" d="M117.47,299.41v9l-4.12-4.13a12.47,12.47,0,0,1,.86-3.11l.45-.45c.23.37.49.71.74,1.05.55.77,1.11,1.54,1.67,2.3A22.87,22.87,0,0,1,117.47,299.41Z"/><path class="cls-4" d="M110.34,300.73l1.23,1.8-1.1-1.1c-.14,0-.23,0-.28-.17a.31.31,0,0,1,.15-.35A.19.19,0,0,0,110.34,300.73Z"/><path class="cls-4" d="M111.57,302.53l.65.66-.12.12Z"/><path class="cls-4" d="M112.22,303.19l2-2a12.47,12.47,0,0,0-.86,3.11Z"/><path class="cls-4" d="M117.47,299.41a22.87,22.87,0,0,0-.4,4.69c-.56-.76-1.12-1.53-1.67-2.3-.25-.34-.51-.68-.74-1.05l2.81-2.81Z"/><path class="cls-2" d="M121.08,316.43l-.19.24a4.69,4.69,0,0,1-6.59.73l-9.71-7.76a4.7,4.7,0,0,1-.73-6.6l.19-.24a6.34,6.34,0,0,0,.87-4c-.13-.85-.41-1.19-.25-1.33.78-.67,8.66,6.78,11,8.69l.26.21,2.18,1.71c1.16.91,1,.78,1.07.85s.6.49,1.13.94C120.41,309.88,120.41,309.89,121.08,316.43Z"/><rect class="cls-5" x="106.66" y="310.69" width="0.76" height="0.13" rx="0.06"/><path class="cls-4" d="M109.93,299.84c1.53-.75,3.07-1.45,4.61-2.17a3.2,3.2,0,0,0-.15.54c-.07.41-.15.84-.25,1.29v5.2a1.1,1.1,0,0,1-.18-.14,6.67,6.67,0,0,1-.62-.68C112.2,302.54,111.07,301.19,109.93,299.84Z"/><path class="cls-4" d="M117.56,296.55h-.66l.66-.32Z"/><path class="cls-4" d="M117.75,307h-.19v-.12Z"/><rect class="cls-2" x="103.01" y="304.16" width="14.39" height="8.93" transform="translate(234.25 5.3) rotate(41.89)"/><path class="cls-2" d="M129.07,422.37a26.6,26.6,0,0,0-12-7.08l-5.58-1.1-1.93-1.13a4.49,4.49,0,0,1-1.14-1.33,4.71,4.71,0,0,1,.38-5.3,5.12,5.12,0,0,1,1.15-1,4.55,4.55,0,0,1,2.54-.74,4,4,0,0,1,.84.13c.06,0,.24.06.39.12a2.55,2.55,0,0,1,.42.21,2.51,2.51,0,0,1,.66.55l3.95,3.12.61.34a34.45,34.45,0,0,0,4.86,2.15l4,4.57A4.7,4.7,0,0,1,129.07,422.37Z"/><path class="cls-2" d="M143.66,447.22a27.17,27.17,0,0,1-9,16.33,16.07,16.07,0,0,1-.41-3.26h0a37.67,37.67,0,0,0,.83-6.93c0-.23,0-.47,0-.7a28,28,0,0,0,1.84-7.21,30.91,30.91,0,0,0,.19-3.35,28.37,28.37,0,0,0-1.26-8.4,27.7,27.7,0,0,0-6.74-11.32c-.27-.28-.55-.55-.84-.82l-.43-.39-.55-.49c-.48-.41-1-.8-1.5-1.18l-.59-.41-.63-.43-1-.61h0a.66.66,0,0,0-.51-.29.34.34,0,0,0-.15.05c.81.65,1.18,1,1.13,1.1s-.64-.16-1.73-.76c-2.77-1-4.6-1.56-5.87-1.95,0,0-1.71-.53-3.77-1.33l-1.11-.48a7.87,7.87,0,0,1-1.39-.7l-.2-.14a10.64,10.64,0,0,1-1.56-1.38l-.33-.35a11.66,11.66,0,0,1-1.39-1.95c-.07-.12-.16-.27-.25-.46s-.31-.63-.4-.85a10.67,10.67,0,0,0,5.94,2c2.09,0,3.31-.7,6.36-.55a20.15,20.15,0,0,1,3,.39,20.85,20.85,0,0,1,2.44.64c9,2.85,16.68,11.21,19.39,22.36A33.83,33.83,0,0,1,143.66,447.22Z"/><path class="cls-2" d="M121.81,417.26l-.36-.21c0-.06.09-.13.15-.19l.36.19Z"/><path class="cls-2" d="M137.67,437.6c0,2-.15,4-.15,4-.09,1.29-.23,2.55-.42,3.77h0a36,36,0,0,0-.83,4.16c-.52,3.91-.29,7.34,1.25-7.94-2,19.09-2.54,20.57-2.81,20.62h0c-.16,0-.21.29-.26.3a19.34,19.34,0,0,1-.33-6.21,10.27,10.27,0,0,1,.29-1.86c.13-.46.22-.92.35-1.37a3.31,3.31,0,0,0,.12-.83h0a40.53,40.53,0,0,0,.59-7.42,39.55,39.55,0,0,0-3.22-15.31c0-.11-.11-.26-.2-.45a28.73,28.73,0,0,0-4.32-6.75,27.5,27.5,0,0,0-6-5.17l-.36-.21c.05-.06.09-.13.15-.19l.08-.1a8,8,0,0,1,3.84-3,4.73,4.73,0,0,1,1.54-.25l.43,0c3.22.28,6.09,3.77,8,9.11a6.76,6.76,0,0,1,.22.68h0s0,0,1.45,8.07C137.3,432.86,137.64,420.23,137.67,437.6Z"/><path class="cls-2" d="M123.33,416.57l-.44,1.23"/><path class="cls-4" d="M124.41,417l-15.15-5"/><path class="cls-5" d="M111.2,414.37l.17-.05"/><path class="cls-4" d="M117.94,301.85l-.22.16"/><path class="cls-1" d="M307.82,388.35l-.51,1"/><path class="cls-2" d="M109.8,412,107,410.18"/><path class="cls-2" d="M136,453.21c-.37-.42-.74-.84-1.1-1.27"/><path class="cls-2" d="M137.75,453.42l-3.08.85"/><path class="cls-2" d="M104.7,406.3,38.77,314.41"/><path class="cls-1" d="M181.76,123.49c-.11.71.29,1,1.48,3.36.37.75.52,1.1.75,1.54l.3.55c.49.85,1.32,2.32,1.51,2.24s0-.18,0-1.22h0c0-.5,0-.83,0-.87,0-1-.68-7.24-2.3-7.43C182.77,121.56,181.9,122.57,181.76,123.49Z"/><path class="cls-1" d="M185.87,130.38c0,.17,0,.34-.05.5"/></g></g></svg>